<?xml version="1.0" standalone="no"?>
<!DOCTYPE svg PUBLIC "-//W3C//DTD SVG 20010904//EN"
 "http://www.w3.org/TR/2001/REC-SVG-20010904/DTD/svg10.dtd">
<svg version="1.0" xmlns="http://www.w3.org/2000/svg"
 width="300.000000pt" height="235.000000pt" viewBox="0 0 300.000000 235.000000"
 preserveAspectRatio="xMidYMid meet">
<metadata>
Created by potrace 1.10, written by Peter Selinger 2001-2011
</metadata>
<g transform="translate(0.000000,235.000000) scale(0.100000,-0.100000)"
fill="#000000" stroke="none">
<path d="M1384 2134 c3 -9 6 -23 7 -32 0 -13 3 -11 11 6 11 22 13 22 233 22
190 0 224 -2 229 -15 3 -9 6 -367 6 -797 0 -709 2 -783 17 -800 15 -16 45 -18
412 -20 l396 -3 0 -165 0 -165 -540 -2 c-297 -2 -591 -3 -652 -3 -69 0 -113
-4 -113 -10 0 -7 230 -10 670 -10 l670 0 -1 190 -1 190 -419 0 -419 0 0 815 0
815 -256 0 c-229 0 -256 -2 -250 -16z"/>
<path d="M150 1130 l0 -1011 513 3 c493 4 515 5 587 26 41 12 82 24 90 26 29
8 115 47 120 55 3 4 25 20 50 34 25 14 63 45 86 69 46 49 110 151 117 188 3
14 11 39 17 55 7 17 14 78 17 136 5 98 3 113 -23 195 -26 78 -36 97 -92 155
-60 65 -154 125 -210 135 -13 3 -38 11 -55 18 l-32 13 45 22 c72 37 172 146
206 227 26 63 29 79 28 184 0 118 -1 120 -57 239 -34 69 -157 155 -274 190
-119 35 -199 40 -662 41 -249 0 -457 3 -462 6 -5 3 -9 -415 -9 -1006z m850
950 c120 -6 217 -15 254 -25 209 -58 311 -171 323 -363 11 -177 -48 -300 -193
-395 -26 -18 -53 -41 -61 -53 -12 -19 -11 -24 13 -47 14 -14 40 -29 57 -33 66
-14 143 -60 203 -119 81 -80 106 -143 112 -281 5 -122 -8 -191 -55 -285 -63
-125 -182 -219 -353 -276 l-85 -28 -510 0 -510 0 -3 945 c-1 520 0 951 3 958
5 15 499 16 805 2z"/>
<path d="M638 1783 c-22 -24 -23 -30 -23 -233 0 -265 -7 -253 159 -258 63 -2
138 1 169 8 126 26 207 121 207 243 0 154 -83 246 -230 253 -251 13 -258 13
-282 -13z m326 -34 c15 -5 32 -7 36 -4 11 7 90 -72 97 -98 3 -12 8 -52 10 -88
6 -88 -21 -149 -82 -185 -56 -32 -60 -33 -228 -35 l-142 -1 -3 214 -2 214 142
-3 c79 -3 156 -8 172 -14z"/>
<path d="M642 1015 l-27 -23 -3 -230 c-3 -255 3 -295 52 -308 14 -3 105 -4
203 -2 166 3 182 5 233 29 116 54 165 134 165 269 0 69 -5 93 -23 127 -30 58
-67 92 -129 120 -57 27 -86 30 -306 37 -133 4 -139 4 -165 -19z m421 -42 c107
-30 167 -110 167 -224 0 -102 -40 -178 -113 -215 -66 -35 -129 -44 -299 -44
l-168 0 0 254 0 254 178 -4 c120 -3 195 -10 235 -21z"/>
</g>
</svg>
