<svg version="1.1" id="Layer_1" xmlns="http://www.w3.org/2000/svg" xmlns:xlink="http://www.w3.org/1999/xlink" x="0px" y="0px"
	 width="100%" viewBox="0 0 362 283" enable-background="new 0 0 362 283" xml:space="preserve">
<path fill="#FFFFFF" opacity="1.000000" stroke="none" 
	d="
M215.000000,284.000000 
	C143.333359,284.000000 72.166718,284.000000 1.000057,284.000000 
	C1.000038,189.666733 1.000038,95.333450 1.000019,1.000133 
	C121.666565,1.000089 242.333130,1.000089 362.999756,1.000044 
	C362.999847,95.333199 362.999847,189.666397 362.999939,283.999817 
	C313.833344,284.000000 264.666656,284.000000 215.000000,284.000000 
M167.227386,36.754795 
	C156.014389,30.739275 143.680176,29.028717 131.313934,28.120064 
	C119.274361,27.235415 107.163933,27.122646 95.082207,27.044786 
	C71.427841,26.892338 47.771797,27.000000 24.116446,27.000000 
	C22.508064,27.000000 20.899681,27.000000 19.210550,27.000000 
	C19.210550,107.871979 19.210550,188.249893 19.210550,269.000000 
	C21.039528,269.000000 22.663902,269.000000 24.288277,269.000000 
	C57.272499,269.000000 90.257332,268.881531 123.240677,269.052246 
	C138.671906,269.132111 153.602570,266.933044 167.984818,262.017303 
	C168.105591,263.590942 168.226379,265.164581 168.339066,266.632812 
	C222.456055,266.632812 275.990814,266.632812 329.685242,266.632812 
	C329.685242,251.369141 329.685242,236.474182 329.685242,220.867432 
	C296.036621,220.867432 262.694550,220.867432 228.854294,220.867432 
	C228.854294,155.287460 228.854294,90.419556 228.854294,25.442570 
	C208.327820,25.442570 188.314545,25.442570 167.953064,25.442570 
	C167.953064,29.534367 167.953064,33.187973 167.227386,36.754795 
z"/>
<path fill="#000000" opacity="1.000000" stroke="none" 
	d="
M167.951797,261.158203 
	C153.602570,266.933044 138.671906,269.132111 123.240677,269.052246 
	C90.257332,268.881531 57.272499,269.000000 24.288277,269.000000 
	C22.663902,269.000000 21.039528,269.000000 19.210550,269.000000 
	C19.210550,188.249893 19.210550,107.871979 19.210550,27.000000 
	C20.899681,27.000000 22.508064,27.000000 24.116446,27.000000 
	C47.771797,27.000000 71.427841,26.892338 95.082207,27.044786 
	C107.163933,27.122646 119.274361,27.235415 131.313934,28.120064 
	C143.680176,29.028717 156.014389,30.739275 167.924591,36.936211 
	C179.282059,43.228691 188.509201,50.828815 192.350861,62.992996 
	C193.989594,68.181923 194.777725,73.796936 194.954987,79.250740 
	C195.184875,86.323730 195.344193,93.625221 193.890579,100.479858 
	C190.820755,114.955841 181.809555,125.356697 169.014328,132.643097 
	C167.972610,133.236313 167.102005,135.146759 167.187759,136.372650 
	C167.253174,137.307526 168.822495,138.429001 169.959824,138.947372 
	C175.361404,141.409393 181.147690,143.172989 186.238510,146.142639 
	C199.051010,153.616592 207.885010,164.667892 210.459427,179.333817 
	C211.935349,187.741776 211.049194,196.591385 210.966751,205.239700 
	C210.833572,219.208298 204.808121,230.911896 196.094391,241.305511 
	C188.512650,250.348862 178.493866,256.183289 167.951797,261.158203 
M80.000000,217.439484 
	C80.000000,219.874054 80.000000,222.308640 80.000000,225.000000 
	C89.646622,225.000000 98.770950,224.901123 107.892044,225.030411 
	C115.590546,225.139542 123.155876,224.872955 130.499374,222.047470 
	C137.993317,219.164093 144.553818,215.024490 146.810776,207.057541 
	C148.420715,201.374573 149.294617,195.112793 148.706299,189.290253 
	C148.202515,184.304413 146.136353,178.785751 143.015549,174.907455 
	C137.532944,168.094131 129.238785,165.496994 120.645996,165.089935 
	C112.013428,164.681000 103.343002,165.144455 94.695747,164.943237 
	C89.876190,164.831100 85.070023,164.143814 80.000000,163.692780 
	C80.000000,181.885788 80.000000,199.170868 80.000000,217.439484 
M125.994835,117.518005 
	C127.326508,116.381592 128.796524,115.371315 129.966782,114.087730 
	C136.257324,107.188034 136.037109,98.446815 134.680435,90.436020 
	C133.330307,82.463837 128.847992,75.275108 119.518173,74.002434 
	C111.935204,72.968063 104.264961,72.471130 96.616035,72.057320 
	C91.159546,71.762115 85.674217,72.000000 80.306282,72.000000 
	C80.306282,88.696915 80.306282,105.760544 80.306282,123.000000 
	C89.588165,123.000000 98.570480,122.801270 107.539108,123.066055 
	C114.119247,123.260323 119.940842,121.389626 125.994835,117.518005 
z"/>
<path fill="#C3C3C3" opacity="1.000000" stroke="none" 
	d="
M167.968307,261.587769 
	C178.493866,256.183289 188.512650,250.348862 196.094391,241.305511 
	C204.808121,230.911896 210.833572,219.208298 210.966751,205.239700 
	C211.049194,196.591385 211.935349,187.741776 210.459427,179.333817 
	C207.885010,164.667892 199.051010,153.616592 186.238510,146.142639 
	C181.147690,143.172989 175.361404,141.409393 169.959824,138.947372 
	C168.822495,138.429001 167.253174,137.307526 167.187759,136.372650 
	C167.102005,135.146759 167.972610,133.236313 169.014328,132.643097 
	C181.809555,125.356697 190.820755,114.955841 193.890579,100.479858 
	C195.344193,93.625221 195.184875,86.323730 194.954987,79.250740 
	C194.777725,73.796936 193.989594,68.181923 192.350861,62.992996 
	C188.509201,50.828815 179.282059,43.228691 168.287415,36.979603 
	C167.953064,33.187973 167.953064,29.534367 167.953064,25.442570 
	C188.314545,25.442570 208.327820,25.442570 228.854294,25.442570 
	C228.854294,90.419556 228.854294,155.287460 228.854294,220.867432 
	C262.694550,220.867432 296.036621,220.867432 329.685242,220.867432 
	C329.685242,236.474182 329.685242,251.369141 329.685242,266.632812 
	C275.990814,266.632812 222.456055,266.632812 168.339066,266.632812 
	C168.226379,265.164581 168.105591,263.590942 167.968307,261.587769 
z"/>
<path fill="#FFFFFF" opacity="1.000000" stroke="none" 
	d="
M80.000000,216.947723 
	C80.000000,199.170868 80.000000,181.885788 80.000000,163.692780 
	C85.070023,164.143814 89.876190,164.831100 94.695747,164.943237 
	C103.343002,165.144455 112.013428,164.681000 120.645996,165.089935 
	C129.238785,165.496994 137.532944,168.094131 143.015549,174.907455 
	C146.136353,178.785751 148.202515,184.304413 148.706299,189.290253 
	C149.294617,195.112793 148.420715,201.374573 146.810776,207.057541 
	C144.553818,215.024490 137.993317,219.164093 130.499374,222.047470 
	C123.155876,224.872955 115.590546,225.139542 107.892044,225.030411 
	C98.770950,224.901123 89.646622,225.000000 80.000000,225.000000 
	C80.000000,222.308640 80.000000,219.874054 80.000000,216.947723 
z"/>
<path fill="#FFFFFF" opacity="1.000000" stroke="none" 
	d="
M125.715462,117.779724 
	C119.940842,121.389626 114.119247,123.260323 107.539108,123.066055 
	C98.570480,122.801270 89.588165,123.000000 80.306282,123.000000 
	C80.306282,105.760544 80.306282,88.696915 80.306282,72.000000 
	C85.674217,72.000000 91.159546,71.762115 96.616035,72.057320 
	C104.264961,72.471130 111.935204,72.968063 119.518173,74.002434 
	C128.847992,75.275108 133.330307,82.463837 134.680435,90.436020 
	C136.037109,98.446815 136.257324,107.188034 129.966782,114.087730 
	C128.796524,115.371315 127.326508,116.381592 125.715462,117.779724 
z"/>
</svg>